/* XPM */
const char * backward_xpm[] = {
"24 24 87 1",
" 	c None",
".	c #FFFFFF",
"+	c #E1E1E1",
"@	c #BFBFBF",
"#	c #ECECEC",
"$	c #FCFCFC",
"%	c #D4D4D4",
"&	c #C3C3C3",
"*	c #F7F7F7",
"=	c #F8F8F8",
"-	c #5F5F5F",
";	c #3D3D3D",
">	c #CACACA",
",	c #CECECE",
"'	c #4A4A4A",
")	c #5D5D5D",
"!	c #E9E9E9",
"~	c #FEFEFE",
"{	c #D7D7D7",
"]	c #5A5A5A",
"^	c #000000",
"/	c #242424",
"(	c #C6C6C6",
"_	c #B4B4B4",
":	c #2F2F2F",
"<	c #4F4F4F",
"[	c #E7E7E7",
"}	c #D3D3D3",
"|	c #5C5C5C",
"1	c #0B0B0B",
"2	c #FAFAFA",
"3	c #2E2E2E",
"4	c #030303",
"5	c #4E4E4E",
"6	c #E6E6E6",
"7	c #F2F2F2",
"8	c #090909",
"9	c #C5C5C5",
"0	c #3E3E3E",
"a	c #FDFDFD",
"b	c #4B4B4B",
"c	c #A7A7A7",
"d	c #282828",
"e	c #515151",
"f	c #070707",
"g	c #BBBBBB",
"h	c #020202",
"i	c #404040",
"j	c #060606",
"k	c #B7B7B7",
"l	c #333333",
"m	c #9B9B9B",
"n	c #080808",
"o	c #EBEBEB",
"p	c #626262",
"q	c #F0F0F0",
"r	c #6B6B6B",
"s	c #121212",
"t	c #CBCBCB",
"u	c #545454",
"v	c #010101",
"w	c #6E6E6E",
"x	c #DBDBDB",
"y	c #323232",
"z	c #F3F3F3",
"A	c #919191",
"B	c #DDDDDD",
"C	c #5B5B5B",
"D	c #F4F4F4",
"E	c #767676",
"F	c #151515",
"G	c #252525",
"H	c #EAEAEA",
"I	c #777777",
"J	c #0C0C0C",
"K	c #3F3F3F",
"L	c #F6F6F6",
"M	c #E3E3E3",
"N	c #646464",
"O	c #0A0A0A",
"P	c #7F7F7F",
"Q	c #535353",
"R	c #D0D0D0",
"S	c #DEDEDE",
"T	c #F5F5F5",
"U	c #DFDFDF",
"V	c #FBFBFB",
"                        ",
"                        ",
"                        ",
"         ...       .... ",
"        .+@#.     .$%&* ",
"       .=-;>.    ..,')! ",
"      ~{]^/(.   .._:^<[ ",
"     .}|1^/(.  .2(34^56 ",
"    .7<8^^/(. ..90^^^56 ",
"   a,b^^^^/(..~cd^^^^5[ ",
"  .>ef^^^^/9.=g/h^^^^56 ",
" .!ij^^^^^/9akl^^^^^^56 ",
" 2mn^^^^^^/(opj^^^^^^56 ",
" .qrs^^^^^/(atuv^^^^^56 ",
"  .6w8^^^^/(.axyv^^^^56 ",
"   .zA1^^^/(. .BC8^^^56 ",
"    .DEF^^G(.  a}-h^^56 ",
"     .HIJ^/(.   ~+K4^56 ",
"      .LmJ/(.    .MNO56 ",
"       .LPQR.     ~{rro ",
"        .7ST.      ~oUV ",
"         ...        ..  ",
"                        ",
"                        "};
