/* XPM */
const char * connect_xpm[] = {
"24 24 79 1",
" 	c None",
".	c #FFFFFF",
"+	c #FBFBFB",
"@	c #F5F5F5",
"#	c #F4F4F4",
"$	c #FAFAFA",
"%	c #F8F8F8",
"&	c #FEFEFE",
"*	c #DFDFDF",
"=	c #8C8C8C",
"-	c #6B6B6B",
";	c #6A6A6A",
">	c #707070",
",	c #C1C1C1",
"'	c #CDCDCD",
")	c #767676",
"!	c #757575",
"~	c #B1B1B1",
"{	c #656565",
"]	c #0D0D0D",
"^	c #000000",
"/	c #0A0A0A",
"(	c #949494",
"_	c #AAAAAA",
":	c #151515",
"<	c #020202",
"[	c #1F1F1F",
"}	c #D0D0D0",
"|	c #BEBEBE",
"1	c #0B0B0B",
"2	c #555555",
"3	c #E9E9E9",
"4	c #727272",
"5	c #272727",
"6	c #C5C5C5",
"7	c #E1E1E1",
"8	c #434343",
"9	c #111111",
"0	c #A2A2A2",
"a	c #EFEFEF",
"b	c #B2B2B2",
"c	c #212121",
"d	c #030303",
"e	c #9F9F9F",
"f	c #404040",
"g	c #303030",
"h	c #080808",
"i	c #202020",
"j	c #808080",
"k	c #BFBFBF",
"l	c #7F7F7F",
"m	c #616161",
"n	c #A9A9A9",
"o	c #2D2D2D",
"p	c #060606",
"q	c #8B8B8B",
"r	c #E5E5E5",
"s	c #4C4C4C",
"t	c #121212",
"u	c #A4A4A4",
"v	c #FCFCFC",
"w	c #8F8F8F",
"x	c #323232",
"y	c #D2D2D2",
"z	c #DEDEDE",
"A	c #161616",
"B	c #F1F1F1",
"C	c #818181",
"D	c #101010",
"E	c #010101",
"F	c #2A2A2A",
"G	c #DDDDDD",
"H	c #D4D4D4",
"I	c #A3A3A3",
"J	c #D7D7D7",
"K	c #A7A7A7",
"L	c #A0A0A0",
"M	c #BCBCBC",
"N	c #F0F0F0",
"                        ",
"                        ",
"        .... ...        ",
"      .+@#@$+@##%&.     ",
"     .*=-;>,');;!~&.    ",
"    ..{]^^/(_:^^<[}.    ",
"    &|^^^^1(_:^^^^23    ",
"    #4^^^^/(_:^^^^56.   ",
" ...78^^^^/(_:^^^^90... ",
".a**bc^^^^1(_:^^^^d!**a.",
".effgh^^^^/(_:^^^^^iffe.",
".j^^^^^^^^/(_:^^^^^^^^j.",
".kllm9^^^^/(n:^^^^^fllk.",
"....}o^^^^1(_:^^^^pq....",
"   .rs^^^^/(_:^^^^tu.   ",
"    vw^^^^/(_:^^^^xy.   ",
"    .zA^^^/(_:^^^^)B.   ",
"    ..CD^^/(_:^^EFG&    ",
"     .vHueIJ*KeLMN.     ",
"      ............      ",
"                        ",
"                        ",
"                        ",
"                        "};
