/* XPM */
const char * continuegame_xpm[] = {
"24 24 273 2",
"  	c None",
". 	c #404040",
"+ 	c #7E7877",
"@ 	c #7D716E",
"# 	c #7B645F",
"$ 	c #3C2B28",
"% 	c #0A1240",
"& 	c #22317F",
"* 	c #303D7F",
"= 	c #37437F",
"- 	c #1F2440",
"; 	c #7F7E7A",
"> 	c #7E7C74",
", 	c #7C796B",
"' 	c #3D3B31",
") 	c #000000",
"! 	c #FAE0DA",
"~ 	c #F7CEC6",
"{ 	c #F3B4A8",
"] 	c #774D45",
"^ 	c #223180",
"/ 	c #647EFF",
"( 	c #859AFF",
"_ 	c #8799F7",
": 	c #444C78",
"< 	c #7F7D7A",
"[ 	c #FBF5E4",
"} 	c #F8F0D3",
"| 	c #F5E8BA",
"1 	c #797051",
"2 	c #F4BBAF",
"3 	c #F0A091",
"4 	c #764339",
"5 	c #303E80",
"6 	c #8599FF",
"7 	c #AAB8FF",
"8 	c #A3AEE9",
"9 	c #9BA6DF",
"0 	c #4B516F",
"a 	c #7E7C75",
"b 	c #F5E8BD",
"c 	c #F1DE9E",
"d 	c #766A3F",
"e 	c #A7B4F5",
"f 	c #71727B",
"g 	c #717486",
"h 	c #484C63",
"i 	c #EFA091",
"j 	c #754339",
"k 	c #303D80",
"l 	c #8E94BD",
"m 	c #8B8785",
"n 	c #7C7D86",
"o 	c #3E4257",
"p 	c #7B635E",
"q 	c #F3B3A6",
"r 	c #E9806C",
"s 	c #713024",
"t 	c #364280",
"u 	c #8699F8",
"v 	c #A0ADF0",
"w 	c #7C7FA1",
"x 	c #B4AFAF",
"y 	c #8F92A6",
"z 	c #272E57",
"A 	c #7C796C",
"B 	c #EDD583",
"C 	c #756634",
"D 	c #3C2A27",
"E 	c #774B43",
"F 	c #360F07",
"G 	c #1E2340",
"H 	c #434C78",
"I 	c #4B5170",
"J 	c #5B5B6C",
"K 	c #B4AEAB",
"L 	c #80808C",
"M 	c #0F1532",
"N 	c #3E3B31",
"O 	c #776A3F",
"P 	c #756734",
"Q 	c #3A3215",
"R 	c #7C7B79",
"S 	c #797673",
"T 	c #736E67",
"U 	c #37332E",
"V 	c #7E7977",
"W 	c #746B6B",
"X 	c #B5ACA7",
"Y 	c #96908A",
"Z 	c #181717",
"` 	c #191919",
" .	c #181817",
"..	c #181818",
"+.	c #7F6344",
"@.	c #7E5D43",
"#.	c #3E2B20",
"$.	c #F1EBE4",
"%.	c #EAE0D6",
"&.	c #DECFBF",
"*.	c #6A5F54",
"=.	c #E2D0CC",
"-.	c #786F6D",
";.	c #3F3C3D",
">.	c #BBB3AB",
",.	c #B7AFA6",
"'.	c #9B9693",
").	c #646464",
"!.	c #6A6969",
"~.	c #7B7A79",
"{.	c #48433D",
"].	c #947757",
"^.	c #EAA36C",
"/.	c #7C4F35",
"(.	c #797672",
"_.	c #EAE1D6",
":.	c #E2D5C7",
"<.	c #D6C3AF",
"[.	c #65594C",
"}.	c #9E8F8C",
"|.	c #626060",
"1.	c #8E8B8A",
"2.	c #C6BEB5",
"3.	c #C6BBB1",
"4.	c #CEC8C3",
"5.	c #A6A2A0",
"6.	c #AAA7A4",
"7.	c #B5B2AE",
"8.	c #696662",
"9.	c #504A43",
"0.	c #AF6D44",
"a.	c #7B472B",
"b.	c #897D7B",
"c.	c #767574",
"d.	c #C7C4C2",
"e.	c #C8C0B5",
"f.	c #C2B9AD",
"g.	c #C5BFB8",
"h.	c #C3BDB7",
"i.	c #C0BCB7",
"j.	c #BDB9B4",
"k.	c #817F7C",
"l.	c #4B4848",
"m.	c #885136",
"n.	c #897C7A",
"o.	c #706E6D",
"p.	c #C6C2BD",
"q.	c #CDC1B3",
"r.	c #D4C9BB",
"s.	c #CAC1B6",
"t.	c #D8D0C5",
"u.	c #D7D0C7",
"v.	c #D8CFC5",
"w.	c #A79F98",
"x.	c #4A4440",
"y.	c #895236",
"z.	c #D7C4B0",
"A.	c #D6C4B0",
"B.	c #CAB196",
"C.	c #5F4F3F",
"D.	c #856C67",
"E.	c #6D6A68",
"F.	c #D4CCC6",
"G.	c #D3C4B5",
"H.	c #DCCEBD",
"I.	c #D6C9BA",
"J.	c #DDCFC0",
"K.	c #D9CCBE",
"L.	c #D9CCBF",
"M.	c #AEA399",
"N.	c #453D39",
"O.	c #874628",
"P.	c #7A3D1E",
"Q.	c #37322E",
"R.	c #695F54",
"S.	c #66594C",
"T.	c #2C2319",
"U.	c #3D2A26",
"V.	c #483430",
"W.	c #65615F",
"X.	c #BCB7B2",
"Y.	c #B9ADA1",
"Z.	c #CBBEAE",
"`.	c #C8BBAC",
" +	c #C7B8A9",
".+	c #C6B8A8",
"++	c #BCAFA1",
"@+	c #8E857C",
"#+	c #3D3531",
"$+	c #4B2414",
"%+	c #3D1909",
"&+	c #7D716F",
"*+	c #7B6460",
"=+	c #3D2B28",
"-+	c #8C9589",
";+	c #7B8474",
">+	c #595651",
",+	c #78726B",
"'+	c #948B80",
")+	c #9A9084",
"!+	c #988E83",
"~+	c #9E9387",
"{+	c #93897E",
"]+	c #3E3935",
"^+	c #444554",
"/+	c #58608B",
"(+	c #F7CFC6",
"_+	c #727D71",
":+	c #CEEFC9",
"<+	c #A3C99C",
"[+	c #525E4C",
"}+	c #484240",
"|+	c #605A56",
"1+	c #67605A",
"2+	c #6B625A",
"3+	c #6A615B",
"4+	c #69645F",
"5+	c #2E2A29",
"6+	c #5C6082",
"7+	c #374380",
"8+	c #657A62",
"9+	c #B7E4B0",
"0+	c #A3D39C",
"a+	c #556D51",
"b+	c #413C3C",
"c+	c #1D1918",
"d+	c #1F1816",
"e+	c #201815",
"f+	c #1C1615",
"g+	c #242120",
"h+	c #353231",
"i+	c #686E92",
"j+	c #526A4F",
"k+	c #736E6D",
"l+	c #A7A19F",
"m+	c #9F9897",
"n+	c #9E9896",
"o+	c #A5A19E",
"p+	c #B5B3B2",
"q+	c #636462",
"r+	c #60678A",
"s+	c #7B9F76",
"t+	c #332E2D",
"u+	c #595352",
"v+	c #585352",
"w+	c #585553",
"x+	c #5D5C5B",
"y+	c #383A3F",
"z+	c #757EAE",
"A+	c #7B625E",
"B+	c #F0A190",
"C+	c #EFA190",
"D+	c #E9816C",
"E+	c #713124",
"F+	c #537058",
"G+	c #97D3A2",
"H+	c #88C693",
"I+	c #3A5E46",
"J+	c #3C5C3E",
"K+	c #23311E",
"L+	c #232744",
"M+	c #394481",
"N+	c #324081",
"O+	c #3E4D95",
"P+	c #778AEA",
"Q+	c #774C43",
"R+	c #213327",
"S+	c #3C614A",
"T+	c #375D45",
"U+	c #385B3D",
"V+	c #1D2D1A",
"W+	c #1D2340",
"X+	c #0A1340",
"                                                ",
"  . + @ @ @ # $ % & * * * = - . ; > > > , ' )   ",
"  + ! ~ ~ ~ { ] ^ / ( ( ( _ : < [ } } } | 1 )   ",
"  @ ~ 2 2 2 3 4 5 6 7 7 8 9 0 a } b b b c d )   ",
"  @ ~ 2 2 2 3 4 5 6 7 e f g h a } b b b c d )   ",
"  @ ~ 2 2 2 i j k 6 7 l m n o a } b b b c d )   ",
"  p q 3 3 3 r s t u v w x y z A | c c c B C )   ",
"  D E 4 4 4 s F G H I J K L M N 1 O O O P Q )   ",
"  . R S S S T U . V @ W X Y Z `  ...+.+.@.#.)   ",
"  R $.%.%.%.&.*.V =.-.;.>.,.'.).!.~.{.].^./.)   ",
"  (._.:.:.:.<.[.@ }.|.1.2.3.4.5.6.7.8.9.0.a.)   ",
"  (._.:.:.:.<.[.@ b.c.d.e.f.g.h.i.j.k.l.m.a.)   ",
"  (._.:.:.:.<.[.@ n.o.p.q.r.s.t.u.v.w.x.y.a.)   ",
"  T &.z.A.z.B.C.p D.E.F.G.H.I.J.K.L.M.N.O.P.)   ",
"  Q.R.S.S.S.C.T.U.V.W.X.Y.Z.`. +.+++@+#+$+%+)   ",
"  . V &+&+&+*+=+. -+;+>+,+'+)+!+~+{+]+^+/+- )   ",
"  + ! (+~ (+{ ] _+:+<+[+}+|+1+2+3+4+5+6+_ 7+)   ",
"  @ ~ 2 2 2 3 4 8+9+0+a+b+c+d+e+f+g+h+i+6 k )   ",
"  @ ~ 2 2 2 3 4 8+9+0+j+k+l+m+n+o+p+q+r+6 5 )   ",
"  @ ~ 2 2 2 3 4 8+9+0+s+t+u+v+v+w+x+y+z+6 5 )   ",
"  A+q B+C+B+D+E+F+G+H+H+I+J+K+L+M+N+O+P+/ ^ )   ",
"  D Q+4 4 4 E+F R+S+T+T+T+U+V+W+t 5 5 5 ^ X+)   ",
"  ) ) ) ) ) ) ) ) ) ) ) ) ) ) ) ) ) ) ) ) )     ",
"                                                "};
