/* XPM */
const char * delete_xpm[] = {
"24 24 22 1",
" 	c None",
".	c #080808",
"+	c #0A0A0A",
"@	c #1F1F1F",
"#	c #020202",
"$	c #070707",
"%	c #010101",
"&	c #0D0D0D",
"*	c #000000",
"=	c #060606",
"-	c #1C1C1C",
";	c #030303",
">	c #111111",
",	c #0B0B0B",
"'	c #040404",
")	c #191919",
"!	c #262626",
"~	c #090909",
"{	c #1B1B1B",
"]	c #151515",
"^	c #0C0C0C",
"/	c #050505",
"                        ",
"                        ",
"                        ",
"                        ",
"      .+@      #$@      ",
"     $%%&     **%&      ",
"    =%***&@  *****&@    ",
"   -;****%$>******%,    ",
"    &*****%'******=)    ",
"     >***********=!     ",
"      &%********~{      ",
"       &*******={       ",
"       ********$]       ",
"      *********%$@      ",
"     ***********%&      ",
"    *******%******&@    ",
"   ]%*****~^&%****%/    ",
"    &****={  &******    ",
"     >**=!    >***      ",
"      &,{      &#*      ",
"                        ",
"                        ",
"                        ",
"                        "};
