/* XPM */
const char * disconnect_xpm[] = {
"24 24 61 1",
" 	c None",
".	c #FFFFFF",
"+	c #FDFDFD",
"@	c #E4E4E4",
"#	c #979797",
"$	c #828282",
"%	c #808080",
"&	c #BFBFBF",
"*	c #DDDDDD",
"=	c #5F5F5F",
"-	c #0C0C0C",
";	c #010101",
">	c #000000",
",	c #EFEFEF",
"'	c #636363",
")	c #2F2F2F",
"!	c #616161",
"~	c #858585",
"{	c #262626",
"]	c #111111",
"^	c #898989",
"/	c #070707",
"(	c #202020",
"_	c #404040",
":	c #424242",
"<	c #757575",
"[	c #FBFBFB",
"}	c #E7E7E7",
"|	c #DFDFDF",
"1	c #474747",
"2	c #7F7F7F",
"3	c #6F6F6F",
"4	c #101010",
"5	c #3F3F3F",
"6	c #494949",
"7	c #6A6A6A",
"8	c #D5D5D5",
"9	c #D6D6D6",
"0	c #E8E8E8",
"a	c #7E7E7E",
"b	c #040404",
"c	c #151515",
"d	c #2B2B2B",
"e	c #2D2D2D",
"f	c #565656",
"g	c #C3C3C3",
"h	c #050505",
"i	c #0A0A0A",
"j	c #0B0B0B",
"k	c #1D1D1D",
"l	c #EEEEEE",
"m	c #6B6B6B",
"n	c #060606",
"o	c #4A4A4A",
"p	c #949494",
"q	c #959595",
"r	c #B1B1B1",
"s	c #CCCCCC",
"t	c #3E3E3E",
"u	c #F7F7F7",
"v	c #9C9C9C",
"                        ",
"                        ",
"                        ",
"        .........       ",
"      .+@#$%%%%&.       ",
"      .*=-;>>>>%.....   ",
"     .,';>>>>>>)===!~.  ",
"     .&{>>>>>>>>>>>>].. ",
"  ....^/>>>>>>>(___:<.  ",
" [}|||1>>>>>>>>2.....   ",
".}3___4>>>>>>>>%.       ",
".|5>>>>>>>>>>>>%.       ",
".}35554>>>>>>>>%.       ",
" [}|||6>>>>>>>>788890   ",
"  ....ab>>>>>>>cdddef.  ",
"     .g{>>>>>>>hiiijk.  ",
"     .lmn>>>>>>opppqr.  ",
"      .st>>>>>>%....    ",
"       .uv$2222&.       ",
"        .........       ",
"                        ",
"                        ",
"                        ",
"                        "};
