/* XPM */
const char * endgame_xpm[] = {
"24 24 303 2",
"  	c None",
". 	c #1B1B1B",
"+ 	c #242424",
"@ 	c #262626",
"# 	c #222222",
"$ 	c #0B0B0B",
"% 	c #0F0F0F",
"& 	c #303030",
"* 	c #845A56",
"= 	c #BC6862",
"- 	c #DB7068",
"; 	c #E26D68",
"> 	c #DE6D64",
", 	c #CA5D58",
"' 	c #944B48",
") 	c #452E2D",
"! 	c #111111",
"~ 	c #7D5A58",
"{ 	c #DA766F",
"] 	c #E97D76",
"^ 	c #E77E75",
"/ 	c #E4766F",
"( 	c #E26D65",
"_ 	c #DE645F",
": 	c #DD5D5A",
"< 	c #DA5A54",
"[ 	c #D9514E",
"} 	c #9E403B",
"| 	c #2F1F1F",
"1 	c #050505",
"2 	c #2D2D2D",
"3 	c #AA6A65",
"4 	c #EB8077",
"5 	c #EA837B",
"6 	c #E77B73",
"7 	c #E36F69",
"8 	c #E16A62",
"9 	c #DE605C",
"0 	c #DB5A54",
"a 	c #D94E4B",
"b 	c #D74843",
"c 	c #D6433D",
"d 	c #D63F3B",
"e 	c #C53934",
"f 	c #402120",
"g 	c #040404",
"h 	c #252525",
"i 	c #AC6C66",
"j 	c #EA8079",
"k 	c #E9817A",
"l 	c #E67770",
"m 	c #E3716A",
"n 	c #E16B67",
"o 	c #DF6763",
"p 	c #DD615E",
"q 	c #DA5754",
"r 	c #DA504D",
"s 	c #D74640",
"t 	c #D63C38",
"u 	c #D4322C",
"v 	c #D32B27",
"w 	c #C72723",
"x 	c #341818",
"y 	c #010101",
"z 	c #7D5B57",
"A 	c #EA8078",
"B 	c #E8847B",
"C 	c #C76862",
"D 	c #9D5852",
"E 	c #9C5653",
"F 	c #BB5A58",
"G 	c #DE6A65",
"H 	c #DC5C56",
"I 	c #CC4C46",
"J 	c #A43531",
"K 	c #A02B27",
"L 	c #BE2824",
"M 	c #D2221E",
"N 	c #D01C18",
"O 	c #AC1A18",
"P 	c #D9766F",
"Q 	c #E9857D",
"R 	c #E57973",
"S 	c #945C58",
"T 	c #E8E2E2",
"U 	c #F0EDEC",
"V 	c #886766",
"W 	c #BE5A56",
"X 	c #DD605C",
"Y 	c #CA524E",
"Z 	c #7D4643",
"` 	c #D3C5C5",
" .	c #DED4D3",
"..	c #823C3B",
"+.	c #D0201E",
"@.	c #CC1612",
"#.	c #C8140F",
"$.	c #5A1210",
"%.	c #020202",
"&.	c #E67E77",
"*.	c #E57F78",
"=.	c #E2716D",
"-.	c #9A6564",
";.	c #FEFEFE",
">.	c #FFFFFF",
",.	c #F2F0F0",
"'.	c #866564",
").	c #B04B48",
"!.	c #7C4543",
"~.	c #E2DADA",
"{.	c #A17F7E",
"].	c #D03532",
"^.	c #C81410",
"/.	c #C40D0A",
"(.	c #AC0908",
"_.	c #070707",
":.	c #1A1A1A",
"<.	c #BB6862",
"[.	c #E67F78",
"}.	c #E27470",
"|.	c #E06B68",
"1.	c #984C4A",
"2.	c #C7BABA",
"3.	c #917674",
"4.	c #E6E1E1",
"5.	c #875A59",
"6.	c #D24641",
"7.	c #C40E0E",
"8.	c #C00808",
"9.	c #BC0606",
"0.	c #2E0404",
"a.	c #DA7069",
"b.	c #E27875",
"c.	c #DF6E68",
"d.	c #DE6664",
"e.	c #D76561",
"f.	c #824744",
"g.	c #D1C7C7",
"h.	c #E5E0E0",
"i.	c #805C5C",
"j.	c #C76362",
"k.	c #C92928",
"l.	c #BF0A0A",
"m.	c #BB0606",
"n.	c #B80303",
"o.	c #550504",
"p.	c #272727",
"q.	c #DE706A",
"r.	c #E07270",
"s.	c #DC615E",
"t.	c #DD605D",
"u.	c #D75F5B",
"v.	c #814744",
"w.	c #D4CBCA",
"x.	c #E8E4E4",
"y.	c #815E5E",
"z.	c #CA6867",
"A.	c #CA3131",
"B.	c #BF0F0F",
"C.	c #BA0606",
"D.	c #B80404",
"E.	c #B50202",
"F.	c #5E0505",
"G.	c #000000",
"H.	c #232323",
"I.	c #DC6863",
"J.	c #DF6C6A",
"K.	c #DC5E58",
"L.	c #DC5955",
"M.	c #DB5C56",
"N.	c #C7514D",
"O.	c #7C4442",
"P.	c #E1D9D9",
"Q.	c #F3F1F1",
"R.	c #826060",
"S.	c #B43030",
"T.	c #BE1010",
"U.	c #BA0808",
"V.	c #B70404",
"W.	c #B40202",
"X.	c #B40000",
"Y.	c #5A0404",
"Z.	c #C85A55",
"`.	c #DE6864",
" +	c #DA5551",
".+	c #DA504C",
"++	c #C94845",
"@+	c #7C4443",
"#+	c #E6DEDE",
"$+	c #FBFAFA",
"%+	c #EBE7E7",
"&+	c #753B3B",
"*+	c #A70B0B",
"=+	c #B60404",
"-+	c #B00000",
";+	c #460303",
">+	c #0C0C0C",
",+	c #954A49",
"'+	c #DA524C",
")+	c #D84440",
"!+	c #963634",
"~+	c #DCD2D1",
"{+	c #E3DEDE",
"]+	c #775E5D",
"^+	c #D6CDCD",
"/+	c #E3DCDC",
"(+	c #7F2A2A",
"_+	c #B50404",
":+	c #B20000",
"<+	c #AC0000",
"[+	c #100404",
"}+	c #462E2D",
"|+	c #DB5651",
"1+	c #DA4F4C",
"2+	c #D73C39",
"3+	c #963836",
"4+	c #F8F6F6",
"5+	c #E7E2E2",
"6+	c #816060",
"7+	c #C06666",
"8+	c #732F2F",
"9+	c #DBD1D1",
"0+	c #945E5E",
"a+	c #B81717",
"b+	c #AF0000",
"c+	c #AD0000",
"d+	c #730202",
"e+	c #030303",
"f+	c #121212",
"g+	c #9F3E3D",
"h+	c #DA4C49",
"i+	c #D43836",
"j+	c #A02724",
"k+	c #936E6D",
"l+	c #AF9D9D",
"m+	c #845E5E",
"n+	c #C56767",
"o+	c #C83737",
"p+	c #B21616",
"q+	c #752828",
"r+	c #A58C8C",
"s+	c #9F8A8A",
"t+	c #935050",
"u+	c #B92323",
"v+	c #AC0101",
"w+	c #A70000",
"x+	c #220606",
"y+	c #302020",
"z+	c #C63F3C",
"A+	c #D23D3B",
"B+	c #CB2A27",
"C+	c #C02926",
"D+	c #C44343",
"E+	c #CC5151",
"F+	c #C63232",
"G+	c #BD1414",
"H+	c #B80D0D",
"I+	c #B30909",
"J+	c #AF1A1A",
"K+	c #B63838",
"L+	c #BA3434",
"M+	c #AF0D0D",
"N+	c #A80000",
"O+	c #580202",
"P+	c #422424",
"Q+	c #C43836",
"R+	c #CC3130",
"S+	c #C41D1D",
"T+	c #C11A1A",
"U+	c #BE1717",
"V+	c #BB1212",
"W+	c #B60808",
"X+	c #B30606",
"Y+	c #AF0303",
"Z+	c #AE0505",
"`+	c #AB0404",
" @	c #6B0202",
".@	c #361D1D",
"+@	c #AB2C2A",
"@@	c #C42929",
"#@	c #BE1A1A",
"$@	c #BA1010",
"%@	c #B60B0B",
"&@	c #B20606",
"*@	c #AC0202",
"=@	c #A90101",
"-@	c #A40000",
";@	c #101010",
">@	c #601F1F",
",@	c #AE2222",
"'@	c #BC1E1E",
")@	c #B71414",
"!@	c #B30D0D",
"~@	c #AF0808",
"{@	c #AC0606",
"]@	c #A70404",
"^@	c #710303",
"/@	c #361010",
"(@	c #5C1515",
"_@	c #631515",
":@	c #5F1212",
"<@	c #4A0C0C",
"[@	c #120606",
"                                                ",
"                  . + @ # . $                   ",
"            % & * = - ; > , ' ) !               ",
"          @ ~ { ] ^ / ( _ : < [ } | 1           ",
"        2 3 4 5 6 7 8 9 0 a b c d e f g         ",
"      h i j k l m n o p q r s t u v w x y       ",
"    % z A B C D E F G p H I J K L M N O $       ",
"    & P Q R S T U V W X Y Z `  ...+.@.#.$.%.    ",
"  1 * &.*.=.-.;.>.,.'.).!.~.>.>.{.].^./.(._.    ",
"  :.<.[.}.|.1.2.>.>.,.3.~.>.>.4.5.6.7.8.9.0.    ",
"  + a.b.c.d.e.f.g.>.>.;.>.>.h.i.j.k.l.m.n.o.    ",
"  p.q.r.s.t._ u.v.w.>.>.>.x.y.z.A.B.C.D.E.F.G.  ",
"  H.I.J.K.L.M.N.O.P.>.>.>.Q.R.S.T.U.V.W.X.Y.G.  ",
"  :.Z.`. +.+++@+#+>.>.$+>.>.%+&+*+=+W.X.-+;+    ",
"  >+,+X '+)+!+~+>.>.{+]+^+>.>./+(+_+:+-+<+[+    ",
"    }+|+1+2+3+4+>.5+6+7+8+9+>.$+0+a+b+c+d+e+    ",
"    f+g+h+i+j+k+l+m+n+o+p+q+r+s+t+u+v+w+x+      ",
"      y+z+A+B+C+D+E+F+G+H+I+J+K+L+M+N+O+%.      ",
"      1 P+Q+R+S+T+U+V+H+W+X+Y+Z+`+w+ @g         ",
"        1 .@+@@@#@$@%@W+&@Y+*@=@-@O+g           ",
"          y ;@>@,@'@)@!@~@{@]@^@x+%.            ",
"              e+$ /@(@_@:@<@[@e+                ",
"                      y y                       ",
"                                                "};
