/* XPM */
const char * forward_xpm[] = {
"24 24 85 1",
" 	c None",
".	c #FFFFFF",
"+	c #F8F8F8",
"@	c #C5C5C5",
"#	c #D2D2D2",
"$	c #FBFBFB",
"%	c #EEEEEE",
"&	c #BFBFBF",
"*	c #DFDFDF",
"=	c #ECECEC",
"-	c #636363",
";	c #474747",
">	c #CBCBCB",
",	c #D0D0D0",
"'	c #3F3F3F",
")	c #5A5A5A",
"!	c #F6F6F6",
"~	c #EAEAEA",
"{	c #565656",
"]	c #000000",
"^	c #2D2D2D",
"/	c #B3B3B3",
"(	c #282828",
"_	c #D6D6D6",
":	c #FEFEFE",
"<	c #030303",
"[	c #C6C6C6",
"}	c #FAFAFA",
"|	c #0A0A0A",
"1	c #5C5C5C",
"2	c #D3D3D3",
"3	c #3E3E3E",
"4	c #090909",
"5	c #4F4F4F",
"6	c #F3F3F3",
"7	c #2A2A2A",
"8	c #ABABAB",
"9	c #D1D1D1",
"0	c #FDFDFD",
"a	c #020202",
"b	c #272727",
"c	c #C0C0C0",
"d	c #F9F9F9",
"e	c #555555",
"f	c #CECECE",
"g	c #383838",
"h	c #BDBDBD",
"i	c #080808",
"j	c #464646",
"k	c #040404",
"l	c #575757",
"m	c #E7E7E7",
"n	c #8D8D8D",
"o	c #454545",
"p	c #0D0D0D",
"q	c #595959",
"r	c #E6E6E6",
"s	c #232323",
"t	c #FCFCFC",
"u	c #060606",
"v	c #5E5E5E",
"w	c #DCDCDC",
"x	c #4D4D4D",
"y	c #818181",
"z	c #010101",
"A	c #535353",
"B	c #CACACA",
"C	c #121212",
"D	c #6A6A6A",
"E	c #EFEFEF",
"F	c #353535",
"G	c #DADADA",
"H	c #6D6D6D",
"I	c #DEDEDE",
"J	c #0B0B0B",
"K	c #939393",
"L	c #707070",
"M	c #656565",
"N	c #D4D4D4",
"O	c #545454",
"P	c #797979",
"Q	c #F4F4F4",
"R	c #E9E9E9",
"S	c #DDDDDD",
"T	c #F1F1F1",
"                        ",
"                        ",
"                        ",
" ....       ...         ",
" +@#$.     .%&*.        ",
" =-;>..    .,')!.       ",
" ~{]^/..   .>(]{_:      ",
" ~{]<^[}.  .>(]|12.     ",
" ~{]]]3[.. .>(]]456.    ",
" ~{]]]]78:..>(]]]]590   ",
" ~{]]]]abcd.>(]]]]4ef.  ",
" ~{]]]]]]gh:>(]]]]]ij%. ",
" ~e]]]]]]klm>(]]]]]]kn+ ",
" ~{]]]]]]o&$>(]]]]]pqr: ",
" ~{]]]]]s,t.>(]]]]uvw.  ",
" ~{]]]ux2. .>(]]]iy=.   ",
" ~{]]zABt  .>(]]CDE:    ",
" ~{]zFG0   .>(]4Hr.     ",
" ~{41I.    .>(JK6.      ",
" %LM20     .NOPQ.       ",
" $*R:      .!ST.        ",
"  ..        ...         ",
"                        ",
"                        "};
