/* XPM */
const char * newgame_xpm[] = {
"24 24 193 2",
"  	c None",
". 	c #000000",
"+ 	c #151515",
"@ 	c #2A2A2A",
"# 	c #272727",
"$ 	c #111111",
"% 	c #6A6A6A",
"& 	c #D0D0D0",
"* 	c #CBCBCB",
"= 	c #B7B7B7",
"- 	c #515151",
"; 	c #808080",
"> 	c #E8E8E8",
", 	c #D1D1D1",
"' 	c #B6B6B6",
") 	c #4E4E4E",
"! 	c #E4E4E4",
"~ 	c #C8C8C8",
"{ 	c #ACACAC",
"] 	c #484848",
"^ 	c #D5D5D5",
"/ 	c #AAAAAA",
"( 	c #ABABAB",
"_ 	c #919191",
": 	c #3B3B3B",
"< 	c #DDDDDD",
"[ 	c #BBBBBB",
"} 	c #A9A9A9",
"| 	c #4B4B4B",
"1 	c #ECECEC",
"2 	c #D9D9D9",
"3 	c #D6D6D6",
"4 	c #CACAC9",
"5 	c #D5D5D4",
"6 	c #C5C5C5",
"7 	c #585858",
"8 	c #E3E3E3",
"9 	c #C4C4C4",
"0 	c #999897",
"a 	c #6C6A68",
"b 	c #A3A2A1",
"c 	c #B0AFAF",
"d 	c #6A6666",
"e 	c #8C8A88",
"f 	c #898988",
"g 	c #CECECE",
"h 	c #9C9C9C",
"i 	c #828282",
"j 	c #585554",
"k 	c #C3C1C1",
"l 	c #727272",
"m 	c #868686",
"n 	c #383838",
"o 	c #EAEAEA",
"p 	c #B1B1B1",
"q 	c #666362",
"r 	c #BCB6B3",
"s 	c #8D8C8B",
"t 	c #C3C3C3",
"u 	c #595959",
"v 	c #E6E6E6",
"w 	c #65615F",
"x 	c #C9C1B9",
"y 	c #767471",
"z 	c #8C8C8B",
"A 	c #7A7A79",
"B 	c #ABABAA",
"C 	c #B5B5B5",
"D 	c #929292",
"E 	c #3F3E3E",
"F 	c #55524F",
"G 	c #D8CFC5",
"H 	c #9C9690",
"I 	c #9D9B9A",
"J 	c #575554",
"K 	c #888686",
"L 	c #4E4D4C",
"M 	c #555555",
"N 	c #888787",
"O 	c #4D4B4B",
"P 	c #7E7D7C",
"Q 	c #94908D",
"R 	c #DDD3C8",
"S 	c #BDB4AC",
"T 	c #E0DCDA",
"U 	c #948E8B",
"V 	c #C8C5C2",
"W 	c #8A847F",
"X 	c #5A5958",
"Y 	c #52504F",
"Z 	c #363636",
"` 	c #3C3A39",
" .	c #B6B4B2",
"..	c #B6B2AC",
"+.	c #DCD1C3",
"@.	c #B7AFA6",
"#.	c #DED9D3",
"$.	c #A7A29C",
"%.	c #CBC7C3",
"&.	c #938F8A",
"*.	c #7C7A79",
"=.	c #484545",
"-.	c #373636",
";.	c #3A3737",
">.	c #B0ACA9",
",.	c #BDB6AE",
"'.	c #E1D3C3",
").	c #CAC1B4",
"!.	c #D6CDC1",
"~.	c #D4CCC3",
"{.	c #D9D2C8",
"].	c #C9C0B7",
"^.	c #7F7973",
"/.	c #4C4746",
"(.	c #403F3F",
"_.	c #363332",
":.	c #B4AEAA",
"<.	c #D2C7BC",
"[.	c #DCCDBC",
"}.	c #D9CCBC",
"|.	c #D7CABB",
"1.	c #DED1C2",
"2.	c #D6CABD",
"3.	c #D4C8BC",
"4.	c #7C746C",
"5.	c #44403E",
"6.	c #353434",
"7.	c #373331",
"8.	c #A49F9B",
"9.	c #C8BAAC",
"0.	c #CBBEAE",
"a.	c #C6B8A9",
"b.	c #C8BAAA",
"c.	c #C1B4A5",
"d.	c #ADA297",
"e.	c #6D645D",
"f.	c #46403F",
"g.	c #838281",
"h.	c #65605E",
"i.	c #605C57",
"j.	c #8A8279",
"k.	c #999085",
"l.	c #988D82",
"m.	c #9D9285",
"n.	c #9A9085",
"o.	c #746C64",
"p.	c #2E2B29",
"q.	c #61605F",
"r.	c #7E7E7E",
"s.	c #D3D3D3",
"t.	c #9A9898",
"u.	c #433E3D",
"v.	c #58524F",
"w.	c #665F5A",
"x.	c #685F58",
"y.	c #6C635B",
"z.	c #68615C",
"A.	c #5A5652",
"B.	c #343131",
"C.	c #A4A4A4",
"D.	c #777777",
"E.	c #DEDEDE",
"F.	c #535050",
"G.	c #221E1D",
"H.	c #1D1716",
"I.	c #1F1715",
"J.	c #1E1815",
"K.	c #1D1A19",
"L.	c #312F2D",
"M.	c #484646",
"N.	c #979797",
"O.	c #252323",
"P.	c #A09A99",
"Q.	c #A59F9D",
"R.	c #9D9695",
"S.	c #A09C99",
"T.	c #ACAAA8",
"U.	c #AAA9A8",
"V.	c #20211F",
"W.	c #0C0909",
"X.	c #544E4D",
"Y.	c #5A5453",
"Z.	c #5A5554",
"`.	c #565250",
" +	c #5B5957",
".+	c #535252",
"++	c #0B0C0B",
"@+	c #060202",
"#+	c #060302",
"$+	c #0B0807",
"%+	c #040202",
"&+	c #040302",
"*+	c #010101",
"    . + @ @ @ @ @ @ @ @ @ @ @ @ @ @ @ # $ .     ",
"    . % & * * * * * * * * * * * * * * = - .     ",
"    . ; > , , , , , , , , , , , , , , ' ) . .   ",
"    . ; ! ~ ~ ~ ~ ~ ~ ~ ~ ~ ~ ~ ~ ~ ~ { ] . .   ",
"    . ; ^ / ( ( / ( ( / ( ( / ( ( / ( _ : . .   ",
"    . ; < [ [ [ [ [ [ [ [ [ [ [ [ [ [ } | . .   ",
"    . ; 1 2 2 2 2 2 2 3 4 5 2 2 2 2 2 6 7 . .   ",
"    . ; 8 ~ ~ ~ ~ ~ 9 0 a b ~ ~ ~ ~ ~ { ] . .   ",
"    . ; ! ~ ~ ~ ~ ~ c d e f ~ ~ ~ ~ ~ { ] . .   ",
"    . ; g h h h h h i j k l h h h h h m n . .   ",
"    . ; o ^ ^ ^ ^ ^ p q r s ^ ^ ^ ^ ^ t u . .   ",
"    . ; v g g g g g ( w x y l z A B g C ) . .   ",
"    . ; ! ~ ~ ~ ~ D E F G H I J K L M N ] . .   ",
"    . ; ^ ( ( ( ( O P Q R S T U V W X Y Z . .   ",
"    . ; < [ [ [ [ `  ...+.@.#.$.%.&.*.=.-.. .   ",
"    . ; 1 2 2 2 2 ;.>.,.'.).!.~.{.].^./.(.. .   ",
"    . ; ! ~ ~ ~ ~ _.:.<.[.}.|.1.2.3.4.5.6.. .   ",
"    . ; 8 ~ ~ ~ ~ 7.8.@.9.0.a.b.c.d.e.f.Z . .   ",
"    . ; g h h h h g.h.i.j.k.l.m.n.o.p.q.n . .   ",
"    . r.> ^ ^ ^ ^ s.t.u.v.w.x.y.z.A.B.C.u . .   ",
"    . D.E.g g g g g { F.G.H.I.J.K.L.M.N.) . .   ",
"    . . . . . . . . . O.P.Q.R.S.T.U.V.. . .     ",
"      . . . . . . . . W.X.Y.Z.`. +.+++. .       ",
"                        @+#+$+%+&+*+.           "};
