/* XPM */
const char * pause_xpm[] = {
"24 24 46 1",
" 	c None",
".	c #FFFFFF",
"+	c #E0E0E0",
"@	c #A8A8A8",
"#	c #A1A1A1",
"$	c #A0A0A0",
"%	c #BBBBBB",
"&	c #F5F5F5",
"*	c #E4E4E4",
"=	c #9F9F9F",
"-	c #BEBEBE",
";	c #F7F7F7",
">	c #B2B2B2",
",	c #252525",
"'	c #111111",
")	c #545454",
"!	c #E6E6E6",
"~	c #BCBCBC",
"{	c #101010",
"]	c #5E5E5E",
"^	c #EAEAEA",
"/	c #ADADAD",
"(	c #171717",
"_	c #000000",
":	c #4A4A4A",
"<	c #B7B7B7",
"[	c #535353",
"}	c #E9E9E9",
"|	c #B8B8B8",
"1	c #353535",
"2	c #222222",
"3	c #616161",
"4	c #E8E8E8",
"5	c #C0C0C0",
"6	c #212121",
"7	c #696969",
"8	c #ECECEC",
"9	c #EBEBEB",
"0	c #C6C6C6",
"a	c #C2C2C2",
"b	c #D3D3D3",
"c	c #F9F9F9",
"d	c #EEEEEE",
"e	c #C1C1C1",
"f	c #D5D5D5",
"g	c #FAFAFA",
"                        ",
"                        ",
"    .......   .......   ",
"   .+@##$%&  .*=#$$-;.  ",
"   .>,''')!  .~{''{]^.  ",
"   ./(___:*  .<____[}.  ",
"   ./(___:*  .<____[}.  ",
"   ./(___:*  .<____[}.  ",
"   ./(___:*  .<____[}.  ",
"   ./(___:*  .<____[}.  ",
"   ./(___:*  .<____[}.  ",
"   ./(___:*  .<____[}.  ",
"   ./(___:*  .<____[}.  ",
"   ./(___:*  .<____[}.  ",
"   ./(___:*  .<____[}.  ",
"   ./(___:*  .<____[}.  ",
"   ./(___:*  .<____[}.  ",
"   ./(___:*  .<____[}.  ",
"   ./(___:*  .<____[}.  ",
"   .|122234  .5622278.  ",
"   .90aaabc  .deaaafg   ",
"    ......    .......   ",
"                        ",
"                        "};
