/* XPM */
const char * play_xpm[] = {
"24 24 56 1",
" 	c None",
".	c #FFFFFF",
"+	c #F7F7F7",
"@	c #BFBFBF",
"#	c #CACACA",
"$	c #F9F9F9",
"%	c #E9E9E9",
"&	c #5C5C5C",
"*	c #3B3B3B",
"=	c #B2B2B2",
"-	c #F8F8F8",
";	c #E7E7E7",
">	c #505050",
",	c #020202",
"'	c #343434",
")	c #BABABA",
"!	c #E8E8E8",
"~	c #515151",
"{	c #000000",
"]	c #101010",
"^	c #B7B7B7",
"/	c #F6F6F6",
"(	c #2F2F2F",
"_	c #A6A6A6",
":	c #010101",
"<	c #2B2B2B",
"[	c #AEAEAE",
"}	c #0B0B0B",
"|	c #A7A7A7",
"1	c #F4F4F4",
"2	c #262626",
"3	c #9B9B9B",
"4	c #F3F3F3",
"5	c #232323",
"6	c #9F9F9F",
"7	c #B0B0B0",
"8	c #ACACAC",
"9	c #161616",
"0	c #030303",
"a	c #3D3D3D",
"b	c #C5C5C5",
"c	c #444444",
"d	c #BDBDBD",
"e	c #FBFBFB",
"f	c #CFCFCF",
"g	c #060606",
"h	c #4D4D4D",
"i	c #D3D3D3",
"j	c #EBEBEB",
"k	c #696969",
"l	c #585858",
"m	c #FCFCFC",
"n	c #FAFAFA",
"o	c #D9D9D9",
"p	c #E2E2E2",
"q	c #FDFDFD",
"                        ",
"                        ",
"       ...              ",
"       +@#$             ",
"       %&*=-            ",
"       ;>,').           ",
"       !~{{]^/          ",
"       !>{{{(_/         ",
"       !>{{{:<[.        ",
"       !~{{{{{}|1       ",
"       !>{{{{{{234      ",
"       !>{{{{{{:56.     ",
"       !>{{{{{{,(7.     ",
"       !>{{{{{{'8+      ",
"       !>{{{{{9@-       ",
"       !>{{{0ab.        ",
"       !>{{{cde         ",
"       !>{{5fe          ",
"       !>ghi.           ",
"       jkl#m            ",
"       nopq             ",
"        ..              ",
"                        ",
"                        "};
