/* XPM */
const char * quit_xpm[] = {
"24 24 207 2",
"  	c None",
". 	c #000000",
"+ 	c #60605E",
"@ 	c #A6A6A3",
"# 	c #898886",
"$ 	c #797875",
"% 	c #6F6E6B",
"& 	c #666662",
"* 	c #5C5B58",
"= 	c #51504C",
"- 	c #474643",
"; 	c #222220",
"> 	c #6A6A68",
", 	c #CDCCCA",
"' 	c #BAB9B5",
") 	c #9E9D99",
"! 	c #8A8885",
"~ 	c #787773",
"{ 	c #6B6A65",
"] 	c #64625E",
"^ 	c #585652",
"/ 	c #262624",
"( 	c #6B6A69",
"_ 	c #D0CECB",
": 	c #C8C6C2",
"< 	c #BAB8B4",
"[ 	c #AEACA7",
"} 	c #9E9C97",
"| 	c #8A8882",
"1 	c #797772",
"2 	c #6D6B66",
"3 	c #353532",
"4 	c #070906",
"5 	c #080A07",
"6 	c #040504",
"7 	c #381008",
"8 	c #6A6968",
"9 	c #D0CFCB",
"0 	c #C8C7C3",
"a 	c #C0BEBA",
"b 	c #B3B1AC",
"c 	c #A8A6A1",
"d 	c #9A9892",
"e 	c #8C8A84",
"f 	c #82807A",
"g 	c #454640",
"h 	c #121610",
"i 	c #141812",
"j 	c #0A0C09",
"k 	c #743E32",
"l 	c #832612",
"m 	c #999896",
"n 	c #C0BFBA",
"o 	c #B8B7B2",
"p 	c #A4A29C",
"q 	c #96948E",
"r 	c #8E8A84",
"s 	c #51534B",
"t 	c #192017",
"u 	c #1C241A",
"v 	c #0E120D",
"w 	c #0E0E0E",
"x 	c #764E46",
"y 	c #E04A28",
"z 	c #892B16",
"A 	c #939290",
"B 	c #B9B7B2",
"C 	c #B1AFA9",
"D 	c #A9A7A0",
"E 	c #A09E98",
"F 	c #96938C",
"G 	c #53564E",
"H 	c #7C6E6B",
"I 	c #7C6864",
"J 	c #7B6863",
"K 	c #B79088",
"L 	c #E1502F",
"M 	c #E25433",
"N 	c #8C2E18",
"O 	c #8E8C8A",
"P 	c #B1AFAA",
"Q 	c #A9A7A1",
"R 	c #ABA9A4",
"S 	c #7C7B78",
"T 	c #4F524A",
"U 	c #EA846C",
"V 	c #E04724",
"W 	c #E14E2D",
"X 	c #E15231",
"Y 	c #E25636",
"Z 	c #E35A3A",
"` 	c #E35E3F",
" .	c #8D301B",
"..	c #888683",
"+.	c #A09E99",
"@.	c #5E5D5C",
"#.	c #2E302A",
"$.	c #EA8770",
"%.	c #E04D2B",
"&.	c #E15030",
"*.	c #E25434",
"=.	c #E25838",
"-.	c #E35C3D",
";.	c #E46041",
">.	c #E46446",
",.	c #E5674A",
"'.	c #89321E",
").	c #82817D",
"!.	c #9C9C9A",
"~.	c #444340",
"{.	c #4A4D45",
"].	c #E88E7A",
"^.	c #E25332",
"/.	c #E25637",
"(.	c #E35A3B",
"_.	c #E35E40",
":.	c #E46244",
"<.	c #E56648",
"[.	c #E56A4D",
"}.	c #E66D51",
"|.	c #E67156",
"1.	c #88291C",
"2.	c #767470",
"3.	c #8B8984",
"4.	c #918E88",
"5.	c #585A52",
"6.	c #1C2319",
"7.	c #1F271C",
"8.	c #10140E",
"9.	c #AF4F4F",
"0.	c #990000",
"a.	c #630000",
"b.	c #7A7874",
"c.	c #A2A099",
"d.	c #9A9890",
"e.	c #595C52",
"f.	c #1E261B",
"g.	c #222A1E",
"h.	c #111610",
"i.	c #B04E4E",
"j.	c #590000",
"k.	c #73726E",
"l.	c #9A9891",
"m.	c #A24747",
"n.	c #640000",
"o.	c #767572",
"p.	c #A2A09A",
"q.	c #9B9891",
"r.	c #5A5C53",
"s.	c #461C1C",
"t.	c #3C0000",
"u.	c #660000",
"v.	c #7B7A78",
"w.	c #B0AEA9",
"x.	c #B2B0AA",
"y.	c #ABA9A3",
"z.	c #A3A19A",
"A.	c #9B9892",
"B.	c #511414",
"C.	c #807F7D",
"D.	c #B8B6B2",
"E.	c #BAB8B3",
"F.	c #9B9992",
"G.	c #541313",
"H.	c #868583",
"I.	c #BFBEBA",
"J.	c #C2C0BC",
"K.	c #BBB9B5",
"L.	c #A09E97",
"M.	c #6B6F65",
"N.	c #2C3629",
"O.	c #263124",
"P.	c #2A3627",
"Q.	c #161B14",
"R.	c #1E0000",
"S.	c #5D5C5C",
"T.	c #C7C6C3",
"U.	c #C9C8C5",
"V.	c #C3C2BE",
"W.	c #BBBAB5",
"X.	c #B3B2AC",
"Y.	c #7F8179",
"Z.	c #3A4235",
"`.	c #283425",
" +	c #32402E",
".+	c #1B2218",
"++	c #686867",
"@+	c #D1D0CD",
"#+	c #CBCAC6",
"$+	c #C4C2BE",
"%+	c #9C9D96",
"&+	c #4C5448",
"*+	c #384733",
"=+	c #20291E",
"-+	c #6C6C6B",
";+	c #D4D3D0",
">+	c #BEBEB8",
",+	c #707C6A",
"'+	c #43543D",
")+	c #4A5E44",
"!+	c #263123",
"~+	c #666764",
"{+	c #909D8A",
"]+	c #5C7254",
"^+	c #597051",
"/+	c #5A7052",
"(+	c #2D3829",
"                                                ",
"            . . . . . . . . . . . . . . . . . . ",
"            . + @ # $ % & * = - ; . . . . . . . ",
"            . > , ' ) ! ~ { ] ^ / . . . . . . . ",
"        . . . ( _ : < [ } | 1 2 3 4 4 4 4 5 6 . ",
"        . 7 . 8 9 0 a b c d e f g h h h h i j . ",
"        . k l . m 0 n o [ p q r s t t t t u v . ",
". w . . . x y z . A n B C D E F G t t t t u v . ",
". H I I J K L M N . O B P Q R S T t t t t u v . ",
". U V y W X Y Z `  .. ..P Q +.@.#.t t t t u v . ",
". $.%.&.*.=.-.;.>.,.'.. ).p !.~.{.t t t t u v . ",
". ].^./.(._.:.<.[.}.|.1.. 2.3.4.5.6.6.6.6.7.8.. ",
". 9.0.0.0.0.0.0.0.0.0.a.. b.c.d.e.f.f.f.f.g.h.. ",
". i.0.0.0.0.0.0.0.0.j.. k.p c.l.e.f.f.f.f.g.h.. ",
". m.0.0.0.0.0.0.0.n.. o.c Q p.q.r.f.f.f.f.g.h.. ",
". s.t.t.t.u.0.0.a.. v.w.x.y.z.A.r.f.f.f.f.g.h.. ",
". . . . . B.0.a.. C.D.E.b y.z.F.r.f.f.f.f.g.h.. ",
"        . G.a.. H.I.J.K.b y.L.M.N.O.O.O.O.P.Q.. ",
"        . R.. S.T.U.V.W.X.Y.Z.`.`.`.`.`.`. +.+. ",
"        . . . ++@+#+$+%+&+`.`.`.`.`.`.`.`.*+=+. ",
"            . -+;+>+,+'+'+'+'+'+'+'+'+'+'+)+!+. ",
"            . ~+{+]+^+^+^+^+^+^+^+^+^+^+^+/+(+. ",
"            . . . . . . . . . . . . . . . . . . ",
"                                                "};
