/* XPM */
const char * stop_xpm[] = {
"24 24 21 1",
" 	c None",
".	c #FFFFFF",
"+	c #FDFDFD",
"@	c #EDEDED",
"#	c #E5E5E5",
"$	c #ECECEC",
"%	c #FCFCFC",
"&	c #EEEEEE",
"*	c #828282",
"=	c #4B4B4B",
"-	c #4C4C4C",
";	c #808080",
">	c #E7E7E7",
",	c #4F4F4F",
"'	c #000000",
")	c #505050",
"!	c #EFEFEF",
"~	c #8E8E8E",
"{	c #5C5C5C",
"]	c #8C8C8C",
"^	c #F2F2F2",
"                        ",
"                        ",
"    ................    ",
"   +@##############$%   ",
"  .&*=------------=;@.  ",
"  .>,''''''''''''''-#.  ",
"  .>)''''''''''''''-#.  ",
"  .>)''''''''''''''-#.  ",
"  .>)''''''''''''''-#.  ",
"  .>)''''''''''''''-#.  ",
"  .>)''''''''''''''-#.  ",
"  .>,''''''''''''''=#.  ",
"  .>)''''''''''''''-#.  ",
"  .>)''''''''''''''-#.  ",
"  .>)''''''''''''''-#.  ",
"  .>)''''''''''''''-#.  ",
"  .>)''''''''''''''-#.  ",
"  .>,''''''''''''''-#.  ",
"  .>,''''''''''''''-#.  ",
"  .!~{{{{{{{{{{{{{{]&.  ",
"   +^@@@@@@@@@@@@@@^+   ",
"                        ",
"                        ",
"                        "};
